<svg width="12" height="16" viewBox="0 0 12 16" fill="none" xmlns="http://www.w3.org/2000/svg">
<path d="M11.7081 7.59092C11.5136 7.37878 11.2776 7.27279 10.9997 7.27279H10.6665V5.09085C10.6665 3.69693 10.2083 2.50007 9.29158 1.50007C8.37493 0.500022 7.2779 0 5.99995 0C4.72202 0 3.62478 0.500022 2.7082 1.50003C1.79148 2.50007 1.33327 3.69689 1.33327 5.09085V7.27279H0.999979C0.722292 7.27279 0.486125 7.37878 0.29166 7.59092C0.0971958 7.8029 0 8.06054 0 8.36374V14.9091C0 15.2121 0.0972323 15.4698 0.29166 15.6819C0.486125 15.8939 0.722292 16 0.999979 16H10.9999C11.2778 16 11.5138 15.894 11.7083 15.6819C11.9026 15.4698 12 15.2121 12 14.9091V8.36362C12.0001 8.06066 11.9026 7.80306 11.7081 7.59092ZM8.66659 7.27279H3.3333V5.09085C3.3333 4.28786 3.59376 3.60221 4.11459 3.03412C4.63548 2.46596 5.2639 2.18194 6.00005 2.18194C6.73628 2.18194 7.36455 2.46592 7.88549 3.03412C8.40616 3.60217 8.66659 4.28786 8.66659 5.09085V7.27279Z" fill="#87460F"/>
</svg>
