<svg width="40" height="40" viewBox="0 0 40 40" fill="none" xmlns="http://www.w3.org/2000/svg">
<path d="M8.82153 8.82141C9.4724 8.17053 10.5277 8.17053 11.1786 8.82141L20 17.6429L28.8215 8.82141C29.4724 8.17053 30.5277 8.17053 31.1786 8.82141C31.8294 9.47228 31.8294 10.5276 31.1786 11.1784L22.3571 19.9999L31.1786 28.8214C31.8294 29.4723 31.8294 30.5276 31.1786 31.1784C30.5277 31.8293 29.4724 31.8293 28.8215 31.1784L20 22.3569L11.1786 31.1784C10.5277 31.8293 9.4724 31.8293 8.82153 31.1784C8.17066 30.5276 8.17066 29.4723 8.82153 28.8214L17.643 19.9999L8.82153 11.1784C8.17066 10.5276 8.17066 9.47228 8.82153 8.82141Z" fill="#363A3D"/>
</svg>
