<svg width="286" height="97" viewBox="0 0 286 97" fill="none" xmlns="http://www.w3.org/2000/svg">
<rect width="285.767" height="96" transform="translate(0 0.268555)" fill="white"/>
<path d="M93.0206 59.4006C91.4397 59.4006 89.9767 59.1305 88.6315 58.5902C87.2961 58.04 86.1326 57.2787 85.1409 56.3062C84.1492 55.3336 83.3784 54.1941 82.8285 52.8876C82.2885 51.581 82.0185 50.1664 82.0185 48.6438C82.0185 47.1113 82.2885 45.6918 82.8285 44.3853C83.3784 43.0787 84.1492 41.9392 85.1409 40.9667C86.1326 39.9941 87.2961 39.2377 88.6315 38.6974C89.9767 38.1571 91.4397 37.887 93.0206 37.887C94.6112 37.887 96.0742 38.162 97.4096 38.7121C98.745 39.2623 99.9085 40.0285 100.9 41.0109C101.892 41.9932 102.658 43.1377 103.198 44.4442C103.748 45.7409 104.023 47.1408 104.023 48.6438C104.023 50.1664 103.748 51.581 103.198 52.8876C102.658 54.1941 101.892 55.3336 100.9 56.3062C99.9085 57.2787 98.745 58.04 97.4096 58.5902C96.0742 59.1305 94.6112 59.4006 93.0206 59.4006ZM93.0206 54.8032C93.8748 54.8032 94.6554 54.6607 95.3624 54.3758C96.0791 54.091 96.7026 53.6784 97.2329 53.1381C97.7631 52.5978 98.1706 51.9494 98.4553 51.193C98.7499 50.4268 98.8972 49.577 98.8972 48.6438C98.8972 47.3864 98.6419 46.2959 98.1313 45.3725C97.6305 44.4491 96.9334 43.7369 96.0399 43.2359C95.1562 42.7251 94.1497 42.4697 93.0206 42.4697C92.1761 42.4697 91.3955 42.617 90.6788 42.9117C89.962 43.1966 89.3385 43.6092 88.8083 44.1495C88.2878 44.6898 87.8804 45.3382 87.5858 46.0946C87.2912 46.851 87.1439 47.7007 87.1439 48.6438C87.1439 49.8914 87.3992 50.9769 87.9098 51.9003C88.4204 52.8237 89.1175 53.5408 90.0012 54.0517C90.8948 54.5527 91.9012 54.8032 93.0206 54.8032Z" fill="#2CB1B9"/>
<path d="M120.288 58.9585L111.996 48.2901L119.493 38.329H125.591L117.961 48.2754L126.577 58.9585H120.288ZM107.607 58.9585V38.329H112.497V45.9767H116.385V50.4415H112.497V58.9585H107.607Z" fill="#2CB1B9"/>
<path d="M137.464 59.4006C135.884 59.4006 134.421 59.1305 133.075 58.5902C131.74 58.04 130.577 57.2787 129.585 56.3062C128.593 55.3336 127.822 54.1941 127.272 52.8876C126.732 51.581 126.462 50.1664 126.462 48.6438C126.462 47.1113 126.732 45.6918 127.272 44.3853C127.822 43.0787 128.593 41.9392 129.585 40.9667C130.577 39.9941 131.74 39.2377 133.075 38.6974C134.421 38.1571 135.884 37.887 137.464 37.887C139.055 37.887 140.518 38.162 141.854 38.7121C143.189 39.2623 144.352 40.0285 145.344 41.0109C146.336 41.9932 147.102 43.1377 147.642 44.4442C148.192 45.7409 148.467 47.1408 148.467 48.6438C148.467 50.1664 148.192 51.581 147.642 52.8876C147.102 54.1941 146.336 55.3336 145.344 56.3062C144.352 57.2787 143.189 58.04 141.854 58.5902C140.518 59.1305 139.055 59.4006 137.464 59.4006ZM137.464 54.8032C138.319 54.8032 139.099 54.6607 139.806 54.3758C140.523 54.091 141.147 53.6784 141.677 53.1381C142.207 52.5978 142.614 51.9494 142.899 51.193C143.194 50.4268 143.341 49.577 143.341 48.6438C143.341 47.3864 143.086 46.2959 142.575 45.3725C142.074 44.4491 141.377 43.7369 140.484 43.2359C139.6 42.7251 138.594 42.4697 137.464 42.4697C136.62 42.4697 135.839 42.617 135.123 42.9117C134.406 43.1966 133.782 43.6092 133.252 44.1495C132.732 44.6898 132.324 45.3382 132.03 46.0946C131.735 46.851 131.588 47.7007 131.588 48.6438C131.588 49.8914 131.843 50.9769 132.354 51.9003C132.864 52.8237 133.561 53.5408 134.445 54.0517C135.339 54.5527 136.345 54.8032 137.464 54.8032Z" fill="#2CB1B9"/>
<path d="M152.051 58.9585V38.329H156.941V45.9767H165.071V38.329H169.961V58.9585H165.071V50.4415H156.941V58.9585H152.051Z" fill="#2CB1B9"/>
<path d="M174.834 58.9585V38.329H179.724V54.4937H187.559V38.329H192.449V58.9585H174.834ZM191.138 64.1454V58.9585H189.445V54.4937H195.778V64.1454H191.138Z" fill="#2CB1B9"/>
<path d="M198.94 58.9585V38.329H213.433V42.5728H203.83V46.404H211.887V50.3236H203.83V54.6706H213.551V58.9585H198.94Z" fill="#2CB1B9"/>
<path d="M217.638 58.9585V38.329H225.621C227.722 38.329 229.401 38.7711 230.658 39.6552C231.915 40.5295 232.544 41.8311 232.544 43.5601C232.544 44.1888 232.416 44.7684 232.161 45.2989C231.905 45.8293 231.557 46.3009 231.115 46.7135C230.683 47.1162 230.197 47.4404 229.657 47.686C230.766 48.0789 231.66 48.7322 232.337 49.6458C233.025 50.5594 233.368 51.6449 233.368 52.9023C233.368 54.1303 233.059 55.1961 232.44 56.0999C231.832 57.0037 230.963 57.706 229.834 58.207C228.704 58.708 227.364 58.9585 225.813 58.9585H217.638ZM222.528 55.3484H225.106C226.166 55.3484 226.961 55.1323 227.492 54.7C228.022 54.2678 228.287 53.6194 228.287 52.755C228.287 51.9298 228.032 51.2912 227.521 50.8394C227.02 50.3776 226.269 50.1468 225.268 50.1468H222.528V55.3484ZM222.528 46.7871H224.958C225.548 46.7871 226.053 46.6889 226.475 46.4924C226.907 46.2959 227.236 46.0111 227.462 45.6378C227.698 45.2645 227.816 44.8175 227.816 44.2969C227.816 43.5404 227.56 42.9559 227.05 42.5433C226.549 42.1308 225.827 41.9245 224.885 41.9245H222.528V46.7871Z" fill="#2CB1B9"/>
<path d="M246.748 59.4006C245.167 59.4006 243.704 59.1305 242.359 58.5902C241.023 58.04 239.86 57.2787 238.868 56.3062C237.876 55.3336 237.105 54.1941 236.556 52.8876C236.016 51.581 235.746 50.1664 235.746 48.6438C235.746 47.1113 236.016 45.6918 236.556 44.3853C237.105 43.0787 237.876 41.9392 238.868 40.9667C239.86 39.9941 241.023 39.2377 242.359 38.6974C243.704 38.1571 245.167 37.887 246.748 37.887C248.338 37.887 249.801 38.162 251.137 38.7121C252.472 39.2623 253.636 40.0285 254.627 41.0109C255.619 41.9932 256.385 43.1377 256.925 44.4442C257.475 45.7409 257.75 47.1408 257.75 48.6438C257.75 50.1664 257.475 51.581 256.925 52.8876C256.385 54.1941 255.619 55.3336 254.627 56.3062C253.636 57.2787 252.472 58.04 251.137 58.5902C249.801 59.1305 248.338 59.4006 246.748 59.4006ZM246.748 54.8032C247.602 54.8032 248.382 54.6607 249.089 54.3758C249.806 54.091 250.43 53.6784 250.96 53.1381C251.49 52.5978 251.898 51.9494 252.182 51.193C252.477 50.4268 252.624 49.577 252.624 48.6438C252.624 47.3864 252.369 46.2959 251.858 45.3725C251.358 44.4491 250.66 43.7369 249.767 43.2359C248.883 42.7251 247.877 42.4697 246.748 42.4697C245.903 42.4697 245.123 42.617 244.406 42.9117C243.689 43.1966 243.066 43.6092 242.535 44.1495C242.015 44.6898 241.607 45.3382 241.313 46.0946C241.018 46.851 240.871 47.7007 240.871 48.6438C240.871 49.8914 241.126 50.9769 241.637 51.9003C242.147 52.8237 242.845 53.5408 243.728 54.0517C244.622 54.5527 245.628 54.8032 246.748 54.8032Z" fill="#2CB1B9"/>
<mask id="path-2-inside-1_4029_1189" fill="white">
<path d="M72.4894 48.4782C72.4894 61.2121 62.1715 71.5349 49.4436 71.5349C36.7158 71.5349 26.3979 61.2121 26.3979 48.4782C26.3979 35.7443 36.7158 25.4214 49.4436 25.4214C62.1715 25.4214 72.4894 35.7443 72.4894 48.4782ZM32.1602 48.4782C32.1602 58.0281 39.8982 65.7699 49.4436 65.7699C58.989 65.7699 66.7271 58.0281 66.7271 48.4782C66.7271 38.9282 58.989 31.1864 49.4436 31.1864C39.8982 31.1864 32.1602 38.9282 32.1602 48.4782Z"/>
</mask>
<path d="M72.4894 48.4782C72.4894 61.2121 62.1715 71.5349 49.4436 71.5349C36.7158 71.5349 26.3979 61.2121 26.3979 48.4782C26.3979 35.7443 36.7158 25.4214 49.4436 25.4214C62.1715 25.4214 72.4894 35.7443 72.4894 48.4782ZM32.1602 48.4782C32.1602 58.0281 39.8982 65.7699 49.4436 65.7699C58.989 65.7699 66.7271 58.0281 66.7271 48.4782C66.7271 38.9282 58.989 31.1864 49.4436 31.1864C39.8982 31.1864 32.1602 38.9282 32.1602 48.4782Z" stroke="#FFBA80" stroke-width="28" mask="url(#path-2-inside-1_4029_1189)"/>
<path fill-rule="evenodd" clip-rule="evenodd" d="M44.8795 66.6251L42.9118 66.0076L35.0412 63.5375L34.846 63.4762C33.8585 63.1663 33.2706 62.1542 33.4905 61.1429L33.504 61.0811L36.6437 46.6454L37.1209 44.4511L40.2606 30.0154C40.5039 28.8968 41.6518 28.2255 42.746 28.5621L43.2591 28.7199L52.1713 31.4615L54.228 32.0941L62.8198 34.7371L63.4737 34.9382C64.5219 35.2607 65.115 36.3672 64.8031 37.4186L64.7724 37.522L60.7645 51.0338L60.5932 51.6113L60.1136 53.2281L55.7288 68.0103C55.4275 69.026 54.3527 69.5982 53.3418 69.2809L52.8658 69.1315L44.8795 66.6251ZM39.814 43.316C39.5717 44.3425 40.1682 45.3807 41.177 45.6884L45.8357 47.1096C46.9179 47.4397 48.0582 46.8072 48.3511 45.7144L51.1262 35.3608C51.4051 34.3204 50.8099 33.2461 49.78 32.9307L44.8134 31.4097C43.7081 31.0712 42.5468 31.7375 42.2813 32.8626L39.814 43.316ZM38.4012 49.302C38.6624 48.1952 39.7928 47.5286 40.8878 47.8357L45.3969 49.1004C46.4517 49.3963 47.0722 50.4857 46.7886 51.5439L43.944 62.1566C43.6499 63.2541 42.5016 63.8864 41.4169 63.5482L37.2553 62.2507C36.2529 61.9382 35.6629 60.9038 35.904 59.8819L38.4012 49.302ZM50.3391 46.4586C50.0569 47.501 50.6532 48.5791 51.6861 48.8942L56.2112 50.2745C57.2784 50.6001 58.4057 49.9894 58.7159 48.9176L61.6909 38.6376C61.9947 37.5882 61.4 36.4892 60.3554 36.1693L55.6544 34.7297C54.5737 34.3987 53.4336 35.0284 53.1383 36.1193L50.3391 46.4586ZM48.7982 52.1504C49.0887 51.0774 50.1985 50.4471 51.2688 50.7473L55.7253 51.9973C56.7951 52.2973 57.4152 53.4117 57.1064 54.479L53.9679 65.3233C53.6564 66.3998 52.5213 67.0103 51.4515 66.6767L47.2166 65.3564C46.1902 65.0364 45.6004 63.9622 45.8814 62.9244L48.7982 52.1504Z" fill="white"/>
<path d="M58.1518 50.8665L49.8328 48.3289L53.6783 34.1245L62.2384 36.746L58.1518 50.8665Z" fill="url(#paint0_linear_4029_1189)"/>
<path d="M47.8153 47.7134L39.3832 45.1412L42.7718 30.7844L51.626 33.496L47.8153 47.7134Z" fill="url(#paint1_linear_4029_1189)"/>
<path d="M47.3004 49.6343L38.8801 47.2726L35.4759 61.6959L43.4049 64.168L47.3004 49.6343Z" fill="url(#paint2_linear_4029_1189)"/>
<path d="M57.667 52.5419L49.3256 50.2023L45.3781 64.7832L53.4004 67.2843L57.667 52.5419Z" fill="url(#paint3_linear_4029_1189)"/>
<defs>
<linearGradient id="paint0_linear_4029_1189" x1="38" y1="32.7685" x2="54.5" y2="47.7685" gradientUnits="userSpaceOnUse">
<stop stop-color="#24FFE7"/>
<stop offset="1" stop-color="#2CB1B9"/>
</linearGradient>
<linearGradient id="paint1_linear_4029_1189" x1="38" y1="32.7685" x2="54.5" y2="47.7685" gradientUnits="userSpaceOnUse">
<stop stop-color="#24FFE7"/>
<stop offset="1" stop-color="#2CB1B9"/>
</linearGradient>
<linearGradient id="paint2_linear_4029_1189" x1="38" y1="32.7685" x2="54.5" y2="47.7685" gradientUnits="userSpaceOnUse">
<stop stop-color="#24FFE7"/>
<stop offset="1" stop-color="#2CB1B9"/>
</linearGradient>
<linearGradient id="paint3_linear_4029_1189" x1="38" y1="32.7685" x2="54.5" y2="47.7685" gradientUnits="userSpaceOnUse">
<stop stop-color="#24FFE7"/>
<stop offset="1" stop-color="#2CB1B9"/>
</linearGradient>
</defs>
</svg>
