<svg width="232" height="77" viewBox="0 0 232 77" fill="none" xmlns="http://www.w3.org/2000/svg">
<path d="M67.0206 49.4006C65.4398 49.4006 63.9768 49.1305 62.6316 48.5902C61.2962 48.04 60.1327 47.2787 59.141 46.3062C58.1493 45.3336 57.3785 44.1941 56.8286 42.8876C56.2886 41.581 56.0186 40.1664 56.0186 38.6438C56.0186 37.1113 56.2886 35.6918 56.8286 34.3853C57.3785 33.0787 58.1493 31.9392 59.141 30.9667C60.1327 29.9941 61.2962 29.2377 62.6316 28.6974C63.9768 28.1571 65.4398 27.887 67.0206 27.887C68.6113 27.887 70.0743 28.162 71.4097 28.7121C72.745 29.2623 73.9086 30.0285 74.9003 31.0109C75.892 31.9932 76.6579 33.1377 77.1979 34.4442C77.7478 35.7409 78.0227 37.1408 78.0227 38.6438C78.0227 40.1664 77.7478 41.581 77.1979 42.8876C76.6579 44.1941 75.892 45.3336 74.9003 46.3062C73.9086 47.2787 72.745 48.04 71.4097 48.5902C70.0743 49.1305 68.6113 49.4006 67.0206 49.4006ZM67.0206 44.8032C67.8749 44.8032 68.6555 44.6607 69.3624 44.3758C70.0792 44.091 70.7027 43.6784 71.2329 43.1381C71.7632 42.5978 72.1706 41.9494 72.4554 41.193C72.75 40.4268 72.8972 39.577 72.8972 38.6438C72.8972 37.3864 72.6419 36.2959 72.1314 35.3725C71.6306 34.4491 70.9335 33.7369 70.0399 33.2359C69.1562 32.7251 68.1498 32.4697 67.0206 32.4697C66.1762 32.4697 65.3956 32.617 64.6788 32.9117C63.962 33.1966 63.3385 33.6092 62.8083 34.1495C62.2879 34.6898 61.8804 35.3382 61.5859 36.0946C61.2913 36.851 61.144 37.7007 61.144 38.6438C61.144 39.8914 61.3993 40.9769 61.9099 41.9003C62.4205 42.8237 63.1176 43.5408 64.0013 44.0517C64.8948 44.5527 65.9013 44.8032 67.0206 44.8032Z" fill="#2CB1B9"/>
<path d="M94.2885 48.9585L85.9965 38.2901L93.4932 28.329H99.5907L91.9615 38.2754L100.578 48.9585H94.2885ZM81.6074 48.9585V28.329H86.4972V35.9767H90.3855V40.4415H86.4972V48.9585H81.6074Z" fill="#2CB1B9"/>
<path d="M111.465 49.4006C109.884 49.4006 108.421 49.1305 107.075 48.5902C105.74 48.04 104.577 47.2787 103.585 46.3062C102.593 45.3336 101.822 44.1941 101.273 42.8876C100.732 41.581 100.462 40.1664 100.462 38.6438C100.462 37.1113 100.732 35.6918 101.273 34.3853C101.822 33.0787 102.593 31.9392 103.585 30.9667C104.577 29.9941 105.74 29.2377 107.075 28.6974C108.421 28.1571 109.884 27.887 111.465 27.887C113.055 27.887 114.518 28.162 115.854 28.7121C117.189 29.2623 118.352 30.0285 119.344 31.0109C120.336 31.9932 121.102 33.1377 121.642 34.4442C122.192 35.7409 122.467 37.1408 122.467 38.6438C122.467 40.1664 122.192 41.581 121.642 42.8876C121.102 44.1941 120.336 45.3336 119.344 46.3062C118.352 47.2787 117.189 48.04 115.854 48.5902C114.518 49.1305 113.055 49.4006 111.465 49.4006ZM111.465 44.8032C112.319 44.8032 113.099 44.6607 113.806 44.3758C114.523 44.091 115.147 43.6784 115.677 43.1381C116.207 42.5978 116.615 41.9494 116.899 41.193C117.194 40.4268 117.341 39.577 117.341 38.6438C117.341 37.3864 117.086 36.2959 116.575 35.3725C116.075 34.4491 115.377 33.7369 114.484 33.2359C113.6 32.7251 112.594 32.4697 111.465 32.4697C110.62 32.4697 109.84 32.617 109.123 32.9117C108.406 33.1966 107.782 33.6092 107.252 34.1495C106.732 34.6898 106.324 35.3382 106.03 36.0946C105.735 36.851 105.588 37.7007 105.588 38.6438C105.588 39.8914 105.843 40.9769 106.354 41.9003C106.864 42.8237 107.562 43.5408 108.445 44.0517C109.339 44.5527 110.345 44.8032 111.465 44.8032Z" fill="#2CB1B9"/>
<path d="M126.051 48.9585V28.329H130.941V35.9767H139.071V28.329H143.961V48.9585H139.071V40.4415H130.941V48.9585H126.051Z" fill="#2CB1B9"/>
<path d="M148.834 48.9585V28.329H153.724V44.4937H161.56V28.329H166.449V48.9585H148.834ZM165.139 54.1454V48.9585H163.445V44.4937H169.778V54.1454H165.139Z" fill="#2CB1B9"/>
<path d="M172.94 48.9585V28.329H187.433V32.5728H177.83V36.404H185.887V40.3236H177.83V44.6706H187.551V48.9585H172.94Z" fill="#2CB1B9"/>
<path d="M191.639 48.9585V28.329H199.621C201.723 28.329 203.402 28.7711 204.658 29.6552C205.915 30.5295 206.544 31.8311 206.544 33.5601C206.544 34.1888 206.416 34.7684 206.161 35.2989C205.905 35.8293 205.557 36.3009 205.115 36.7135C204.683 37.1162 204.197 37.4404 203.657 37.686C204.766 38.0789 205.66 38.7322 206.337 39.6458C207.025 40.5594 207.368 41.6449 207.368 42.9023C207.368 44.1303 207.059 45.1961 206.44 46.0999C205.832 47.0037 204.963 47.706 203.834 48.207C202.704 48.708 201.364 48.9585 199.813 48.9585H191.639ZM196.528 45.3484H199.106C200.166 45.3484 200.962 45.1323 201.492 44.7C202.022 44.2678 202.287 43.6194 202.287 42.755C202.287 41.9298 202.032 41.2912 201.521 40.8394C201.02 40.3776 200.269 40.1468 199.268 40.1468H196.528V45.3484ZM196.528 36.7871H198.958C199.548 36.7871 200.053 36.6889 200.475 36.4924C200.908 36.2959 201.236 36.0111 201.462 35.6378C201.698 35.2645 201.816 34.8175 201.816 34.2969C201.816 33.5404 201.56 32.9559 201.05 32.5433C200.549 32.1308 199.827 31.9245 198.885 31.9245H196.528V36.7871Z" fill="#2CB1B9"/>
<path d="M220.748 49.4006C219.167 49.4006 217.704 49.1305 216.359 48.5902C215.023 48.04 213.86 47.2787 212.868 46.3062C211.876 45.3336 211.106 44.1941 210.556 42.8876C210.016 41.581 209.746 40.1664 209.746 38.6438C209.746 37.1113 210.016 35.6918 210.556 34.3853C211.106 33.0787 211.876 31.9392 212.868 30.9667C213.86 29.9941 215.023 29.2377 216.359 28.6974C217.704 28.1571 219.167 27.887 220.748 27.887C222.338 27.887 223.801 28.162 225.137 28.7121C226.472 29.2623 227.636 30.0285 228.627 31.0109C229.619 31.9932 230.385 33.1377 230.925 34.4442C231.475 35.7409 231.75 37.1408 231.75 38.6438C231.75 40.1664 231.475 41.581 230.925 42.8876C230.385 44.1941 229.619 45.3336 228.627 46.3062C227.636 47.2787 226.472 48.04 225.137 48.5902C223.801 49.1305 222.338 49.4006 220.748 49.4006ZM220.748 44.8032C221.602 44.8032 222.383 44.6607 223.089 44.3758C223.806 44.091 224.43 43.6784 224.96 43.1381C225.49 42.5978 225.898 41.9494 226.182 41.193C226.477 40.4268 226.624 39.577 226.624 38.6438C226.624 37.3864 226.369 36.2959 225.858 35.3725C225.358 34.4491 224.661 33.7369 223.767 33.2359C222.883 32.7251 221.877 32.4697 220.748 32.4697C219.903 32.4697 219.123 32.617 218.406 32.9117C217.689 33.1966 217.066 33.6092 216.535 34.1495C216.015 34.6898 215.607 35.3382 215.313 36.0946C215.018 36.851 214.871 37.7007 214.871 38.6438C214.871 39.8914 215.126 40.9769 215.637 41.9003C216.148 42.8237 216.845 43.5408 217.728 44.0517C218.622 44.5527 219.628 44.8032 220.748 44.8032Z" fill="#2CB1B9"/>
<mask id="path-2-inside-1_4065_773" fill="white">
<path d="M46.4895 38.4782C46.4895 51.2121 36.1715 61.5349 23.4437 61.5349C10.7159 61.5349 0.397949 51.2121 0.397949 38.4782C0.397949 25.7443 10.7159 15.4214 23.4437 15.4214C36.1715 15.4214 46.4895 25.7443 46.4895 38.4782ZM6.16024 38.4782C6.16024 48.0281 13.8983 55.7699 23.4437 55.7699C32.9891 55.7699 40.7272 48.0281 40.7272 38.4782C40.7272 28.9282 32.9891 21.1864 23.4437 21.1864C13.8983 21.1864 6.16024 28.9282 6.16024 38.4782Z"/>
</mask>
<path d="M46.4895 38.4782C46.4895 51.2121 36.1715 61.5349 23.4437 61.5349C10.7159 61.5349 0.397949 51.2121 0.397949 38.4782C0.397949 25.7443 10.7159 15.4214 23.4437 15.4214C36.1715 15.4214 46.4895 25.7443 46.4895 38.4782ZM6.16024 38.4782C6.16024 48.0281 13.8983 55.7699 23.4437 55.7699C32.9891 55.7699 40.7272 48.0281 40.7272 38.4782C40.7272 28.9282 32.9891 21.1864 23.4437 21.1864C13.8983 21.1864 6.16024 28.9282 6.16024 38.4782Z" stroke="#FFBA80" stroke-width="28" mask="url(#path-2-inside-1_4065_773)"/>
<path fill-rule="evenodd" clip-rule="evenodd" d="M18.8794 56.625L16.9118 56.0075L9.04119 53.5373L8.84592 53.4761C7.85846 53.1662 7.27054 52.1541 7.49049 51.1428L7.50393 51.081L10.6436 36.6452L11.1208 34.451L14.2605 20.0153C14.5038 18.8967 15.6518 18.2254 16.746 18.562L17.259 18.7198L26.1713 21.4614L28.228 22.094L36.8197 24.737L37.4737 24.9381C38.5219 25.2606 39.1149 26.367 38.8031 27.4185L38.7724 27.5219L34.7644 41.0337L34.5931 41.6111L34.1135 43.2279L29.7287 58.0101C29.4274 59.0259 28.3526 59.5981 27.3417 59.2808L26.8658 59.1314L18.8794 56.625ZM13.814 33.3159C13.5717 34.3424 14.1681 35.3806 15.1769 35.6883L19.8357 37.1094C20.9178 37.4395 22.0581 36.8071 22.351 35.7143L25.1262 25.3607C25.405 24.3203 24.8099 23.2459 23.78 22.9305L18.8134 21.4096C17.7081 21.0711 16.5468 21.7374 16.2812 22.8625L13.814 33.3159ZM12.4011 39.3019C12.6624 38.195 13.7927 37.5285 14.8877 37.8356L19.3968 39.1003C20.4517 39.3962 21.0722 40.4856 20.7885 41.5438L17.944 52.1565C17.6498 53.254 16.5016 53.8862 15.4169 53.5481L11.2552 52.2506C10.2529 51.938 9.66281 50.9036 9.904 49.8818L12.4011 39.3019ZM24.3391 36.4585C24.0569 37.5008 24.6531 38.579 25.6861 38.8941L30.2111 40.2744C31.2784 40.6 32.4056 39.9893 32.7158 38.9174L35.6909 28.6375C35.9946 27.5881 35.4 26.4891 34.3554 26.1692L29.6544 24.7295C28.5737 24.3986 27.4336 25.0282 27.1382 26.1192L24.3391 36.4585ZM22.7982 42.1503C23.0887 41.0772 24.1984 40.447 25.2688 40.7472L29.7253 41.9971C30.795 42.2972 31.4152 43.4116 31.1063 44.4788L27.9679 55.3232C27.6563 56.3997 26.5213 57.0101 25.4514 56.6766L21.2165 55.3562C20.1901 55.0362 19.6004 53.962 19.8813 52.9243L22.7982 42.1503Z" fill="white"/>
<path d="M32.1518 40.8664L23.8328 38.3287L27.6783 24.1244L36.2384 26.7458L32.1518 40.8664Z" fill="url(#paint0_linear_4065_773)"/>
<path d="M21.8152 37.7133L13.3832 35.1411L16.7717 20.7843L25.626 23.4959L21.8152 37.7133Z" fill="url(#paint1_linear_4065_773)"/>
<path d="M21.3004 39.6342L12.8801 37.2725L9.47584 51.6958L17.4049 54.1679L21.3004 39.6342Z" fill="url(#paint2_linear_4065_773)"/>
<path d="M31.6669 42.5417L23.3256 40.2022L19.3781 54.7831L27.4004 57.2842L31.6669 42.5417Z" fill="url(#paint3_linear_4065_773)"/>
<defs>
<linearGradient id="paint0_linear_4065_773" x1="17.4999" y1="29" x2="28.9999" y2="48" gradientUnits="userSpaceOnUse">
<stop stop-color="#24FFE7"/>
<stop offset="1" stop-color="#2CB1B9"/>
</linearGradient>
<linearGradient id="paint1_linear_4065_773" x1="17.4999" y1="29" x2="28.9999" y2="48" gradientUnits="userSpaceOnUse">
<stop stop-color="#24FFE7"/>
<stop offset="1" stop-color="#2CB1B9"/>
</linearGradient>
<linearGradient id="paint2_linear_4065_773" x1="17.4999" y1="29" x2="28.9999" y2="48" gradientUnits="userSpaceOnUse">
<stop stop-color="#24FFE7"/>
<stop offset="1" stop-color="#2CB1B9"/>
</linearGradient>
<linearGradient id="paint3_linear_4065_773" x1="17.4999" y1="29" x2="28.9999" y2="48" gradientUnits="userSpaceOnUse">
<stop stop-color="#24FFE7"/>
<stop offset="1" stop-color="#2CB1B9"/>
</linearGradient>
</defs>
</svg>
