<svg width="682" height="229" viewBox="0 0 682 229" fill="none" xmlns="http://www.w3.org/2000/svg">
<rect width="682" height="229" fill="white"/>
<path d="M221.999 141.055C218.226 141.055 214.734 140.41 211.524 139.121C208.337 137.809 205.56 135.993 203.194 133.673C200.827 131.353 198.987 128.635 197.675 125.518C196.386 122.402 195.742 119.027 195.742 115.395C195.742 111.739 196.386 108.353 197.675 105.237C198.987 102.12 200.827 99.4017 203.194 97.0818C205.56 94.7619 208.337 92.9576 211.524 91.6687C214.734 90.3799 218.226 89.7355 221.999 89.7355C225.795 89.7355 229.287 90.3916 232.473 91.7039C235.66 93.0162 238.437 94.844 240.804 97.1873C243.171 99.5306 244.999 102.261 246.287 105.377C247.6 108.47 248.256 111.81 248.256 115.395C248.256 119.027 247.6 122.402 246.287 125.518C244.999 128.635 243.171 131.353 240.804 133.673C238.437 135.993 235.66 137.809 232.473 139.121C229.287 140.41 225.795 141.055 221.999 141.055ZM221.999 130.088C224.037 130.088 225.9 129.748 227.588 129.068C229.298 128.389 230.786 127.405 232.052 126.116C233.317 124.827 234.29 123.28 234.969 121.476C235.672 119.648 236.024 117.621 236.024 115.395C236.024 112.396 235.414 109.794 234.196 107.592C233.001 105.389 231.337 103.69 229.205 102.495C227.096 101.276 224.694 100.667 221.999 100.667C219.983 100.667 218.121 101.019 216.41 101.722C214.699 102.401 213.211 103.385 211.946 104.674C210.704 105.963 209.731 107.51 209.028 109.314C208.325 111.118 207.974 113.145 207.974 115.395C207.974 118.371 208.583 120.96 209.802 123.163C211.02 125.366 212.684 127.077 214.793 128.295C216.925 129.49 219.327 130.088 221.999 130.088ZM287.075 140L267.286 114.551L285.177 90.79H299.729L281.521 114.516L302.084 140H287.075ZM256.811 140V90.79H268.481V109.033H277.76V119.683H268.481V140H256.811ZM328.067 141.055C324.294 141.055 320.802 140.41 317.592 139.121C314.405 137.809 311.628 135.993 309.261 133.673C306.895 131.353 305.055 128.635 303.743 125.518C302.454 122.402 301.81 119.027 301.81 115.395C301.81 111.739 302.454 108.353 303.743 105.237C305.055 102.12 306.895 99.4017 309.261 97.0818C311.628 94.7619 314.405 92.9576 317.592 91.6687C320.802 90.3799 324.294 89.7355 328.067 89.7355C331.863 89.7355 335.354 90.3916 338.541 91.7039C341.728 93.0162 344.505 94.844 346.872 97.1873C349.239 99.5306 351.066 102.261 352.355 105.377C353.668 108.47 354.324 111.81 354.324 115.395C354.324 119.027 353.668 122.402 352.355 125.518C351.066 128.635 349.239 131.353 346.872 133.673C344.505 135.993 341.728 137.809 338.541 139.121C335.354 140.41 331.863 141.055 328.067 141.055ZM328.067 130.088C330.105 130.088 331.968 129.748 333.655 129.068C335.366 128.389 336.854 127.405 338.12 126.116C339.385 124.827 340.357 123.28 341.037 121.476C341.74 119.648 342.091 117.621 342.091 115.395C342.091 112.396 341.482 109.794 340.264 107.592C339.069 105.389 337.405 103.69 335.272 102.495C333.163 101.276 330.761 100.667 328.067 100.667C326.051 100.667 324.188 101.019 322.478 101.722C320.767 102.401 319.279 103.385 318.014 104.674C316.772 105.963 315.799 107.51 315.096 109.314C314.393 111.118 314.042 113.145 314.042 115.395C314.042 118.371 314.651 120.96 315.87 123.163C317.088 125.366 318.752 127.077 320.861 128.295C322.993 129.49 325.395 130.088 328.067 130.088ZM362.879 140V90.79H374.549V109.033H393.951V90.79H405.621V140H393.951V119.683H374.549V140H362.879ZM417.252 140V90.79H428.921V129.35H447.621V90.79H459.291V140H417.252ZM456.163 152.373V140H452.12V129.35H467.235V152.373H456.163ZM474.782 140V90.79H509.37V100.913H486.452V110.052H505.679V119.402H486.452V129.771H509.651V140H474.782ZM519.406 140V90.79H538.458C543.472 90.79 547.479 91.8445 550.479 93.9535C553.478 96.0391 554.978 99.144 554.978 103.268C554.978 104.768 554.673 106.151 554.064 107.416C553.455 108.681 552.623 109.806 551.569 110.79C550.537 111.751 549.377 112.524 548.089 113.11C550.737 114.048 552.869 115.606 554.486 117.785C556.126 119.964 556.946 122.554 556.946 125.553C556.946 128.483 556.208 131.025 554.732 133.181C553.279 135.337 551.205 137.012 548.51 138.207C545.816 139.402 542.617 140 538.915 140H519.406ZM531.076 131.388H537.227C539.758 131.388 541.656 130.873 542.922 129.842C544.187 128.811 544.82 127.264 544.82 125.202C544.82 123.233 544.21 121.71 542.992 120.632C541.797 119.531 540.004 118.98 537.614 118.98H531.076V131.388ZM531.076 110.966H536.876C538.282 110.966 539.489 110.732 540.496 110.263C541.527 109.794 542.312 109.115 542.851 108.224C543.414 107.334 543.695 106.268 543.695 105.026C543.695 103.221 543.086 101.827 541.867 100.843C540.672 99.8587 538.95 99.3666 536.7 99.3666H531.076V110.966ZM588.877 141.055C585.104 141.055 581.613 140.41 578.402 139.121C575.215 137.809 572.438 135.993 570.072 133.673C567.705 131.353 565.865 128.635 564.553 125.518C563.264 122.402 562.62 119.027 562.62 115.395C562.62 111.739 563.264 108.353 564.553 105.237C565.865 102.12 567.705 99.4017 570.072 97.0818C572.438 94.7619 575.215 92.9576 578.402 91.6687C581.613 90.3799 585.104 89.7355 588.877 89.7355C592.673 89.7355 596.165 90.3916 599.352 91.7039C602.539 93.0162 605.315 94.844 607.682 97.1873C610.049 99.5306 611.877 102.261 613.166 105.377C614.478 108.47 615.134 111.81 615.134 115.395C615.134 119.027 614.478 122.402 613.166 125.518C611.877 128.635 610.049 131.353 607.682 133.673C605.315 135.993 602.539 137.809 599.352 139.121C596.165 140.41 592.673 141.055 588.877 141.055ZM588.877 130.088C590.916 130.088 592.779 129.748 594.466 129.068C596.176 128.389 597.664 127.405 598.93 126.116C600.195 124.827 601.168 123.28 601.847 121.476C602.55 119.648 602.902 117.621 602.902 115.395C602.902 112.396 602.293 109.794 601.074 107.592C599.879 105.389 598.215 103.69 596.083 102.495C593.974 101.276 591.572 100.667 588.877 100.667C586.862 100.667 584.999 101.019 583.288 101.722C581.577 102.401 580.089 103.385 578.824 104.674C577.582 105.963 576.61 107.51 575.907 109.314C575.204 111.118 574.852 113.145 574.852 115.395C574.852 118.371 575.461 120.96 576.68 123.163C577.898 125.366 579.562 127.077 581.671 128.295C583.804 129.49 586.206 130.088 588.877 130.088Z" fill="#4FCDD5"/>
<circle cx="118" cy="115" r="48" stroke="#FFA85E" stroke-width="14"/>
<path fill-rule="evenodd" clip-rule="evenodd" d="M107.107 158.288L102.411 156.815L83.6279 150.923L80.7444 150.018C79.7567 149.708 79.1686 148.696 79.3887 147.685L79.9591 145.063L87.4521 110.628L88.5911 105.394L96.0841 70.9587L96.7005 68.1258C96.9495 66.9818 98.1235 66.2953 99.2426 66.6394L103.24 67.8685L124.51 74.4082L129.418 75.9174L149.923 82.2219L154.107 83.5083C155.155 83.8307 155.749 84.9374 155.437 85.989L154.583 88.865L145.018 121.096L144.609 122.474L143.464 126.331L133 161.592L132.27 164.053C131.952 165.123 130.819 165.726 129.754 165.392L126.167 164.267L107.107 158.288ZM94.4213 105.215C94.1789 106.241 94.7755 107.28 95.7845 107.587L112.135 112.572C113.217 112.902 114.357 112.27 114.65 111.177L122.708 81.1265C122.987 80.086 122.392 79.0114 121.362 78.6961L104.119 73.418C103.013 73.0797 101.852 73.7459 101.587 74.8708L94.4213 105.215ZM92.3106 114.153C92.5719 113.047 93.702 112.38 94.7969 112.687L110.981 117.224C112.036 117.52 112.657 118.61 112.373 119.668L104.127 150.416C103.833 151.513 102.685 152.145 101.601 151.807L86.4451 147.085C85.4425 146.772 84.8523 145.738 85.0936 144.715L92.3106 114.153ZM119.435 112.773C119.153 113.816 119.749 114.894 120.783 115.209L136.842 120.106C137.909 120.431 139.036 119.821 139.347 118.749L147.988 88.906C148.292 87.8564 147.697 86.7571 146.652 86.4373L130.082 81.3653C129.001 81.0346 127.862 81.6641 127.566 82.7549L119.435 112.773ZM117.191 121.06C117.481 119.988 118.591 119.358 119.661 119.658L135.683 124.149C136.753 124.449 137.374 125.564 137.064 126.631L128.011 157.9C127.699 158.976 126.564 159.587 125.495 159.253L110.136 154.467C109.11 154.148 108.52 153.073 108.801 152.035L117.191 121.06Z" fill="white"/>
<path d="M138.783 120.697L118.929 114.644L128.106 80.7606L148.535 87.0139L138.783 120.697Z" fill="url(#paint0_linear_2004_473)"/>
<path d="M114.114 113.176L93.9902 107.04L102.077 72.7932L123.208 79.2613L114.114 113.176Z" fill="url(#paint1_linear_2004_473)"/>
<path d="M112.885 117.758L92.7896 112.124L84.6652 146.53L103.588 152.427L112.885 117.758Z" fill="url(#paint2_linear_2004_473)"/>
<path d="M137.625 124.694L117.718 119.113L108.297 153.894L127.443 159.861L137.625 124.694Z" fill="url(#paint3_linear_2004_473)"/>
<defs>
<linearGradient id="paint0_linear_2004_473" x1="126.272" y1="71.3398" x2="126.272" y2="155.806" gradientUnits="userSpaceOnUse">
<stop stop-color="#24FFE7"/>
<stop offset="1" stop-color="#4FCDD5"/>
</linearGradient>
<linearGradient id="paint1_linear_2004_473" x1="126.272" y1="71.3398" x2="126.272" y2="155.806" gradientUnits="userSpaceOnUse">
<stop stop-color="#24FFE7"/>
<stop offset="1" stop-color="#4FCDD5"/>
</linearGradient>
<linearGradient id="paint2_linear_2004_473" x1="126.272" y1="71.3398" x2="126.272" y2="155.806" gradientUnits="userSpaceOnUse">
<stop stop-color="#24FFE7"/>
<stop offset="1" stop-color="#4FCDD5"/>
</linearGradient>
<linearGradient id="paint3_linear_2004_473" x1="126.272" y1="71.3398" x2="126.272" y2="155.806" gradientUnits="userSpaceOnUse">
<stop stop-color="#24FFE7"/>
<stop offset="1" stop-color="#4FCDD5"/>
</linearGradient>
</defs>
</svg>
