<svg width="110" height="110" viewBox="0 0 110 110" fill="none" xmlns="http://www.w3.org/2000/svg">
<circle cx="55" cy="55" r="48" stroke="#FFA85E" stroke-width="14"/>
<path fill-rule="evenodd" clip-rule="evenodd" d="M44.1074 98.2881L39.4115 96.815L20.6279 90.9228L17.7444 90.0183C16.7567 89.7084 16.1686 88.6962 16.3887 87.6847L16.9591 85.0634L24.4521 50.6281L25.5911 45.3939L33.0841 10.9587L33.7005 8.1258C33.9495 6.98178 35.1235 6.29529 36.2426 6.63937L40.2402 7.86849L61.5098 14.4082L66.4182 15.9174L86.9229 22.2219L91.107 23.5083C92.1554 23.8307 92.7486 24.9374 92.4365 25.989L91.583 28.865L82.0178 61.0964L81.609 62.4738L80.4644 66.3306L69.9999 101.592L69.2697 104.053C68.952 105.123 67.8192 105.726 66.7537 105.392L63.1672 104.267L44.1074 98.2881ZM31.4213 45.2145C31.1789 46.2412 31.7755 47.2796 32.7845 47.5872L49.1347 52.5724C50.2167 52.9023 51.3568 52.2699 51.6497 51.1774L59.7082 21.1265C59.9873 20.086 59.392 19.0114 58.3619 18.6961L41.1185 13.418C40.0133 13.0797 38.8523 13.7459 38.5867 14.8708L31.4213 45.2145ZM29.3106 54.1532C29.5719 53.0466 30.702 52.3802 31.7969 52.6871L47.981 57.2242C49.0361 57.52 49.6567 58.6096 49.3729 59.668L41.1274 90.416C40.8332 91.5133 39.6852 92.1454 38.6006 91.8074L23.4451 87.0846C22.4425 86.7721 21.8523 85.7375 22.0936 84.7155L29.3106 54.1532ZM56.4355 52.7732C56.1531 53.8158 56.7495 54.8941 57.7826 55.2092L73.8423 60.1058C74.9094 60.4311 76.0364 59.8206 76.3467 58.749L84.9876 28.906C85.2915 27.8564 84.6967 26.7571 83.6519 26.4373L67.082 21.3653C66.0015 21.0346 64.8617 21.6641 64.5662 22.7549L56.4355 52.7732ZM54.1908 61.0604C54.4814 59.9876 55.5909 59.3575 56.6611 59.6576L72.6832 64.1492C73.7532 64.4492 74.3735 65.5638 74.0645 66.6312L65.0107 97.9002C64.6991 98.9764 63.5642 99.5868 62.4945 99.2534L47.1365 94.4674C46.1098 94.1475 45.5199 93.0731 45.801 92.0351L54.1908 61.0604Z" fill="white"/>
<path d="M75.7826 60.6973L55.9288 54.6439L65.1064 20.7606L85.5354 27.0139L75.7826 60.6973Z" fill="url(#paint0_linear_6001_2903)"/>
<path d="M51.1138 53.1758L30.9902 47.0401L39.0773 12.7932L60.2084 19.2613L51.1138 53.1758Z" fill="url(#paint1_linear_6001_2903)"/>
<path d="M49.8851 57.758L29.7896 52.1244L21.6652 86.5299L40.5882 92.4268L49.8851 57.758Z" fill="url(#paint2_linear_6001_2903)"/>
<path d="M74.6255 64.6937L54.7183 59.1129L45.2975 93.8943L64.443 99.8606L74.6255 64.6937Z" fill="url(#paint3_linear_6001_2903)"/>
<defs>
<linearGradient id="paint0_linear_6001_2903" x1="63.2722" y1="11.3398" x2="63.2722" y2="95.8058" gradientUnits="userSpaceOnUse">
<stop stop-color="#24FFE7"/>
<stop offset="1" stop-color="#4FCDD5"/>
</linearGradient>
<linearGradient id="paint1_linear_6001_2903" x1="63.2722" y1="11.3398" x2="63.2722" y2="95.8058" gradientUnits="userSpaceOnUse">
<stop stop-color="#24FFE7"/>
<stop offset="1" stop-color="#4FCDD5"/>
</linearGradient>
<linearGradient id="paint2_linear_6001_2903" x1="63.2722" y1="11.3398" x2="63.2722" y2="95.8058" gradientUnits="userSpaceOnUse">
<stop stop-color="#24FFE7"/>
<stop offset="1" stop-color="#4FCDD5"/>
</linearGradient>
<linearGradient id="paint3_linear_6001_2903" x1="63.2722" y1="11.3398" x2="63.2722" y2="95.8058" gradientUnits="userSpaceOnUse">
<stop stop-color="#24FFE7"/>
<stop offset="1" stop-color="#4FCDD5"/>
</linearGradient>
</defs>
</svg>
