<svg width="40" height="40" viewBox="0 0 40 40" fill="none" xmlns="http://www.w3.org/2000/svg">
<path d="M6.66602 11.6667C6.66602 10.7462 7.41221 10 8.33268 10H31.666C32.5865 10 33.3327 10.7462 33.3327 11.6667C33.3327 12.5871 32.5865 13.3333 31.666 13.3333H8.33268C7.41221 13.3333 6.66602 12.5871 6.66602 11.6667ZM6.66602 20C6.66602 19.0795 7.41221 18.3333 8.33268 18.3333H31.666C32.5865 18.3333 33.3327 19.0795 33.3327 20C33.3327 20.9205 32.5865 21.6667 31.666 21.6667H8.33268C7.41221 21.6667 6.66602 20.9205 6.66602 20ZM6.66602 28.3333C6.66602 27.4129 7.41221 26.6667 8.33268 26.6667H31.666C32.5865 26.6667 33.3327 27.4129 33.3327 28.3333C33.3327 29.2538 32.5865 30 31.666 30H8.33268C7.41221 30 6.66602 29.2538 6.66602 28.3333Z" fill="#363A3D"/>
</svg>
