<svg width="24" height="25" viewBox="0 0 24 25" fill="none" xmlns="http://www.w3.org/2000/svg">
<path fill-rule="evenodd" clip-rule="evenodd" d="M4.25626 16.8623C3.13959 14.9783 2.74899 12.7515 3.1578 10.5999C3.5666 8.44833 4.74669 6.51996 6.47652 5.17681C8.20636 3.83366 10.367 3.16811 12.5527 3.30509C14.7385 3.44207 16.7991 4.37217 18.3477 5.92078C19.8963 7.46939 20.8264 9.53 20.9634 11.7158C21.1004 13.9015 20.4349 16.0622 19.0917 17.792C17.7486 19.5218 15.8202 20.7019 13.6686 21.1107C11.5171 21.5195 9.29025 21.1289 7.40626 20.0123L4.29376 20.8935C4.16624 20.9308 4.03103 20.9331 3.90231 20.9002C3.77359 20.8673 3.6561 20.8003 3.56215 20.7064C3.4682 20.6124 3.40126 20.4949 3.36833 20.3662C3.33541 20.2375 3.33771 20.1023 3.37501 19.9748L4.25626 16.8623ZM11.3828 16.9519C12.295 17.3284 13.2726 17.521 14.2594 17.5185C14.9532 17.5136 15.6171 17.2351 16.1068 16.7437C16.5965 16.2522 16.8726 15.5873 16.875 14.8935C16.8759 14.7789 16.8459 14.6662 16.7882 14.5672C16.7305 14.4682 16.6471 14.3866 16.5469 14.331L14.6344 13.2341C14.5181 13.1689 14.3868 13.1354 14.2535 13.1371C14.1202 13.1387 13.9896 13.1754 13.875 13.2435L12.4031 14.1248C11.399 13.6734 10.5952 12.8695 10.1438 11.8654L11.025 10.3935C11.0931 10.2789 11.1298 10.1484 11.1315 10.0151C11.1331 9.88178 11.0996 9.7504 11.0344 9.63414L9.93752 7.72164C9.88191 7.62144 9.80032 7.53808 9.70133 7.48033C9.60234 7.42259 9.48962 7.3926 9.37502 7.39351C8.68045 7.39351 8.01419 7.66878 7.52217 8.15904C7.03016 8.6493 6.7525 9.31457 6.75002 10.0091C6.74755 10.996 6.9401 11.9736 7.3166 12.8858C7.69311 13.798 8.24615 14.6268 8.94395 15.3246C9.64176 16.0224 10.4706 16.5754 11.3828 16.9519Z" fill="#2CB1B9" stroke="#2CB1B9" stroke-linecap="round" stroke-linejoin="round"/>
</svg>
