<svg width="25" height="25" viewBox="0 0 25 25" fill="none" xmlns="http://www.w3.org/2000/svg">
<path fill-rule="evenodd" clip-rule="evenodd" d="M4.75626 16.8623C3.63959 14.9783 3.24899 12.7515 3.6578 10.5999C4.0666 8.44833 5.24669 6.51996 6.97652 5.17681C8.70636 3.83366 10.867 3.16811 13.0527 3.30509C15.2385 3.44207 17.2991 4.37217 18.8477 5.92078C20.3963 7.46939 21.3264 9.53 21.4634 11.7158C21.6004 13.9015 20.9349 16.0622 19.5917 17.792C18.2486 19.5218 16.3202 20.7019 14.1686 21.1107C12.0171 21.5195 9.79025 21.1289 7.90626 20.0123L4.79376 20.8935C4.66624 20.9308 4.53103 20.9331 4.40231 20.9002C4.27359 20.8673 4.1561 20.8003 4.06215 20.7064C3.9682 20.6124 3.90126 20.4949 3.86833 20.3662C3.83541 20.2375 3.83771 20.1023 3.87501 19.9748L4.75626 16.8623ZM11.8828 16.9519C12.795 17.3284 13.7726 17.521 14.7594 17.5185C15.4532 17.5136 16.1171 17.2351 16.6068 16.7437C17.0965 16.2522 17.3726 15.5873 17.375 14.8935C17.3759 14.7789 17.3459 14.6662 17.2882 14.5672C17.2305 14.4682 17.1471 14.3866 17.0469 14.331L15.1344 13.2341C15.0181 13.1689 14.8868 13.1354 14.7535 13.1371C14.6202 13.1387 14.4896 13.1754 14.375 13.2435L12.9031 14.1248C11.899 13.6734 11.0952 12.8695 10.6438 11.8654L11.525 10.3935C11.5931 10.2789 11.6298 10.1484 11.6315 10.0151C11.6331 9.88178 11.5996 9.7504 11.5344 9.63414L10.4375 7.72164C10.3819 7.62144 10.3003 7.53808 10.2013 7.48033C10.1023 7.42259 9.98962 7.3926 9.87502 7.39351C9.18045 7.39351 8.51419 7.66878 8.02217 8.15904C7.53016 8.6493 7.2525 9.31457 7.25002 10.0091C7.24755 10.996 7.4401 11.9736 7.8166 12.8858C8.19311 13.798 8.74615 14.6268 9.44395 15.3246C10.1418 16.0224 10.9706 16.5754 11.8828 16.9519Z" fill="white" stroke="white" stroke-linecap="round" stroke-linejoin="round"/>
</svg>
